{
  "accessors": [
    {
      "bufferView": 2,
      "componentType": 5126,
      "count": 141,
      "max": [
        115.26557159423828,
        413.24334716796875,
        120.82504272460938
      ],
      "min": [
        -164.42872619628906,
        -40.80916213989258,
        -143.83358764648438
      ],
      "type": "VEC3"
    },
    {
      "bufferView": 2,
      "byteOffset": 1692,
      "componentType": 5126,
      "count": 141,
      "max": [
        0.9984408617019653,
        0.9382792115211487,
        0.9987819194793701
      ],
      "min": [
        -0.9708123207092285,
        -0.9079028964042664,
        -0.9885283708572388
      ],
      "type": "VEC3"
    },
    {
      "bufferView": 3,
      "componentType": 5126,
      "count": 141,
      "max": [
        0.9772471189498901,
        0.976478636264801,
        0.9999732375144958,
        1.0
      ],
      "min": [
        -0.9778740406036377,
        -0.9989341497421265,
        -0.9994853138923645,
        -1.0
      ],
      "type": "VEC4"
    },
    {
      "bufferView": 1,
      "componentType": 5126,
      "count": 141,
      "max": [
        0.9799449443817139,
        0.9849392175674438
      ],
      "min": [
        0.010366903617978096,
        0.000523777212947607
      ],
      "type": "VEC2"
    },
    {
      "bufferView": 1,
      "byteOffset": 1128,
      "componentType": 5126,
      "count": 141,
      "max": [
        0.9799449443817139,
        0.9849392175674438
      ],
      "min": [
        0.010366903617978096,
        0.000523777212947607
      ],
      "type": "VEC2"
    },
    {
      "bufferView": 0,
      "componentType": 5125,
      "count": 546,
      "type": "SCALAR"
    },
    {
      "bufferView": 2,
      "byteOffset": 3384,
      "componentType": 5126,
      "count": 122,
      "max": [
        1060.143310546875,
        424.5230712890625,
        158.771728515625
      ],
      "min": [
        752.563232421875,
        -67.31917572021484,
        -181.05763244628906
      ],
      "type": "VEC3"
    },
    {
      "bufferView": 2,
      "byteOffset": 4848,
      "componentType": 5126,
      "count": 122,
      "max": [
        0.9945943355560303,
        0.9250146150588989,
        0.9550522565841675
      ],
      "min": [
        -0.9730947017669678,
        -0.9829914569854736,
        -0.9612043499946594
      ],
      "type": "VEC3"
    },
    {
      "bufferView": 3,
      "byteOffset": 2256,
      "componentType": 5126,
      "count": 122,
      "max": [
        0.949346125125885,
        0.9631805419921875,
        0.9193299412727356,
        1.0
      ],
      "min": [
        -0.9812492728233337,
        -0.9806163311004639,
        -0.995964765548706,
        -1.0
      ],
      "type": "VEC4"
    },
    {
      "bufferView": 1,
      "byteOffset": 2256,
      "componentType": 5126,
      "count": 122,
      "max": [
        0.9879692792892456,
        0.9727876782417297
      ],
      "min": [
        0.02213704213500023,
        0.014621052891016006
      ],
      "type": "VEC2"
    },
    {
      "bufferView": 1,
      "byteOffset": 3232,
      "componentType": 5126,
      "count": 122,
      "max": [
        0.9879692792892456,
        0.9727876782417297
      ],
      "min": [
        0.02213704213500023,
        0.014621052891016006
      ],
      "type": "VEC2"
    },
    {
      "bufferView": 0,
      "byteOffset": 2184,
      "componentType": 5125,
      "count": 480,
      "type": "SCALAR"
    },
    {
      "bufferView": 2,
      "byteOffset": 6312,
      "componentType": 5126,
      "count": 183,
      "max": [
        -306.39599609375,
        400.6144104003906,
        125.61595153808594
      ],
      "min": [
        -612.7293701171875,
        -74.74768829345703,
        -105.3397445678711
      ],
      "type": "VEC3"
    },
    {
      "bufferView": 2,
      "byteOffset": 8508,
      "componentType": 5126,
      "count": 183,
      "max": [
        0.98738032579422,
        0.9928866624832153,
        0.9996570944786072
      ],
      "min": [
        -0.9917044043540955,
        -0.9541817307472229,
        -0.9978042244911194
      ],
      "type": "VEC3"
    },
    {
      "bufferView": 3,
      "byteOffset": 4208,
      "componentType": 5126,
      "count": 183,
      "max": [
        0.9997012615203857,
        0.8488346338272095,
        0.9007481932640076,
        1.0
      ],
      "min": [
        -0.999401330947876,
        -0.9994110465049744,
        -0.645056962966919,
        1.0
      ],
      "type": "VEC4"
    },
    {
      "bufferView": 1,
      "byteOffset": 4208,
      "componentType": 5126,
      "count": 183,
      "max": [
        0.9695886373519897,
        0.9893715381622314
      ],
      "min": [
        0.03836408257484436,
        0.017025228589773178
      ],
      "type": "VEC2"
    },
    {
      "bufferView": 1,
      "byteOffset": 5672,
      "componentType": 5126,
      "count": 183,
      "max": [
        0.9695886373519897,
        0.9893715381622314
      ],
      "min": [
        0.03836408257484436,
        0.017025228589773178
      ],
      "type": "VEC2"
    },
    {
      "bufferView": 0,
      "byteOffset": 4104,
      "componentType": 5125,
      "count": 792,
      "type": "SCALAR"
    },
    {
      "bufferView": 2,
      "byteOffset": 10704,
      "componentType": 5126,
      "count": 148,
      "max": [
        -761.1033325195313,
        372.360595703125,
        129.690185546875
      ],
      "min": [
        -1015.6385498046875,
        -48.544830322265625,
        -146.5751953125
      ],
      "type": "VEC3"
    },
    {
      "bufferView": 2,
      "byteOffset": 12480,
      "componentType": 5126,
      "count": 148,
      "max": [
        0.977605402469635,
        0.9223847389221191,
        0.962186872959137
      ],
      "min": [
        -0.9591090679168701,
        -0.9546089172363281,
        -0.9958065748214722
      ],
      "type": "VEC3"
    },
    {
      "bufferView": 3,
      "byteOffset": 7136,
      "componentType": 5126,
      "count": 148,
      "max": [
        0.9181512594223022,
        0.9966952800750732,
        0.9697466492652893,
        1.0
      ],
      "min": [
        -0.8587852120399475,
        -0.9976546168327332,
        -0.9485726952552795,
        -1.0
      ],
      "type": "VEC4"
    },
    {
      "bufferView": 1,
      "byteOffset": 7136,
      "componentType": 5126,
      "count": 148,
      "max": [
        0.9955739974975586,
        0.9892966747283936
      ],
      "min": [
        0.0005043738055974245,
        0.0005043738055974245
      ],
      "type": "VEC2"
    },
    {
      "bufferView": 1,
      "byteOffset": 8320,
      "componentType": 5126,
      "count": 148,
      "max": [
        0.9955739974975586,
        0.9892966747283936
      ],
      "min": [
        0.0005043738055974245,
        0.0005043738055974245
      ],
      "type": "VEC2"
    },
    {
      "bufferView": 0,
      "byteOffset": 7272,
      "componentType": 5125,
      "count": 606,
      "type": "SCALAR"
    },
    {
      "bufferView": 2,
      "byteOffset": 14256,
      "componentType": 5126,
      "count": 109,
      "max": [
        559.0892333984375,
        390.248291015625,
        109.44152069091797
      ],
      "min": [
        271.4824523925781,
        -71.82417297363281,
        -155.45822143554688
      ],
      "type": "VEC3"
    },
    {
      "bufferView": 2,
      "byteOffset": 15564,
      "componentType": 5126,
      "count": 109,
      "max": [
        0.9951528310775757,
        0.9249994158744812,
        0.9992605447769165
      ],
      "min": [
        -0.9663009643554688,
        -0.9967329502105713,
        -0.9821407794952393
      ],
      "type": "VEC3"
    },
    {
      "bufferView": 3,
      "byteOffset": 9504,
      "componentType": 5126,
      "count": 109,
      "max": [
        0.9847825169563293,
        0.971779465675354,
        0.9885177612304688,
        1.0
      ],
      "min": [
        -0.9848085641860962,
        -0.9995912909507751,
        -0.994895339012146,
        1.0
      ],
      "type": "VEC4"
    },
    {
      "bufferView": 1,
      "byteOffset": 9504,
      "componentType": 5126,
      "count": 109,
      "max": [
        0.999413251876831,
        0.980461597442627
      ],
      "min": [
        0.0005867535364814103,
        0.0005867535364814103
      ],
      "type": "VEC2"
    },
    {
      "bufferView": 1,
      "byteOffset": 10376,
      "componentType": 5126,
      "count": 109,
      "max": [
        0.999413251876831,
        0.980461597442627
      ],
      "min": [
        0.0005867535364814103,
        0.0005867535364814103
      ],
      "type": "VEC2"
    },
    {
      "bufferView": 0,
      "byteOffset": 9696,
      "componentType": 5125,
      "count": 408,
      "type": "SCALAR"
    }
  ],
  "asset": {
    "extras": {
      "author": "Gebus (https://sketchfab.com/deadzik)",
      "license": "CC-BY-4.0 (http://creativecommons.org/licenses/by/4.0/)",
      "source": "https://sketchfab.com/3d-models/stylized-crystal-gems-asset-pack-9746a0dec967498ebfe76dac9c29ef07",
      "title": "Stylized crystal gems asset pack"
    },
    "generator": "Sketchfab-12.66.0",
    "version": "2.0"
  },
  "bufferViews": [
    {
      "buffer": 0,
      "byteLength": 11328,
      "name": "floatBufferViews",
      "target": 34963
    },
    {
      "buffer": 0,
      "byteLength": 11248,
      "byteOffset": 11328,
      "byteStride": 8,
      "name": "floatBufferViews",
      "target": 34962
    },
    {
      "buffer": 0,
      "byteLength": 16872,
      "byteOffset": 22576,
      "byteStride": 12,
      "name": "floatBufferViews",
      "target": 34962
    },
    {
      "buffer": 0,
      "byteLength": 11248,
      "byteOffset": 39448,
      "byteStride": 16,
      "name": "floatBufferViews",
      "target": 34962
    }
  ],
  "buffers": [
    {
      "byteLength": 50696,
      "uri": "scene.bin"
    }
  ],
  "images": [
    {
      "uri": "textures/material_baseColor.png"
    },
    {
      "uri": "textures/material_normal.png"
    },
    {
      "uri": "textures/material_1_baseColor.png"
    },
    {
      "uri": "textures/material_1_normal.png"
    },
    {
      "uri": "textures/material_2_baseColor.png"
    },
    {
      "uri": "textures/material_2_normal.png"
    },
    {
      "uri": "textures/material_3_baseColor.png"
    },
    {
      "uri": "textures/material_3_normal.png"
    },
    {
      "uri": "textures/4.001_baseColor.png"
    },
    {
      "uri": "textures/4.001_normal.png"
    }
  ],
  "materials": [
    {
      "doubleSided": true,
      "emissiveFactor": [
        1.0,
        1.0,
        1.0
      ],
      "emissiveTexture": {
        "index": 0
      },
      "name": "material",
      "normalTexture": {
        "index": 1
      },
      "pbrMetallicRoughness": {
        "baseColorTexture": {
          "index": 0
        },
        "metallicFactor": 0.0,
        "roughnessFactor": 0.0
      }
    },
    {
      "doubleSided": true,
      "emissiveFactor": [
        1.0,
        1.0,
        1.0
      ],
      "emissiveTexture": {
        "index": 2
      },
      "name": "material_1",
      "normalTexture": {
        "index": 3
      },
      "pbrMetallicRoughness": {
        "baseColorTexture": {
          "index": 2
        },
        "metallicFactor": 0.0
      }
    },
    {
      "doubleSided": true,
      "emissiveFactor": [
        1.0,
        1.0,
        1.0
      ],
      "emissiveTexture": {
        "index": 4
      },
      "name": "material_2",
      "normalTexture": {
        "index": 5
      },
      "pbrMetallicRoughness": {
        "baseColorTexture": {
          "index": 4
        },
        "metallicFactor": 0.0
      }
    },
    {
      "doubleSided": true,
      "emissiveFactor": [
        1.0,
        1.0,
        1.0
      ],
      "emissiveTexture": {
        "index": 6
      },
      "name": "material_3",
      "normalTexture": {
        "index": 7
      },
      "pbrMetallicRoughness": {
        "baseColorTexture": {
          "index": 6
        },
        "metallicFactor": 0.0
      }
    },
    {
      "doubleSided": true,
      "emissiveFactor": [
        1.0,
        1.0,
        1.0
      ],
      "emissiveTexture": {
        "index": 8
      },
      "name": "4.001",
      "normalTexture": {
        "index": 9
      },
      "pbrMetallicRoughness": {
        "baseColorTexture": {
          "index": 8
        },
        "metallicFactor": 0.0
      }
    }
  ],
  "meshes": [
    {
      "name": "3_3_0",
      "primitives": [
        {
          "attributes": {
            "NORMAL": 1,
            "POSITION": 0,
            "TANGENT": 2,
            "TEXCOORD_0": 3,
            "TEXCOORD_1": 4
          },
          "indices": 5,
          "material": 0,
          "mode": 4
        }
      ]
    },
    {
      "name": "5_5_0",
      "primitives": [
        {
          "attributes": {
            "NORMAL": 7,
            "POSITION": 6,
            "TANGENT": 8,
            "TEXCOORD_0": 9,
            "TEXCOORD_1": 10
          },
          "indices": 11,
          "material": 1,
          "mode": 4
        }
      ]
    },
    {
      "name": "2_2_0",
      "primitives": [
        {
          "attributes": {
            "NORMAL": 13,
            "POSITION": 12,
            "TANGENT": 14,
            "TEXCOORD_0": 15,
            "TEXCOORD_1": 16
          },
          "indices": 17,
          "material": 2,
          "mode": 4
        }
      ]
    },
    {
      "name": "1_1_0",
      "primitives": [
        {
          "attributes": {
            "NORMAL": 19,
            "POSITION": 18,
            "TANGENT": 20,
            "TEXCOORD_0": 21,
            "TEXCOORD_1": 22
          },
          "indices": 23,
          "material": 3,
          "mode": 4
        }
      ]
    },
    {
      "name": "4_4.001_0",
      "primitives": [
        {
          "attributes": {
            "NORMAL": 25,
            "POSITION": 24,
            "TANGENT": 26,
            "TEXCOORD_0": 27,
            "TEXCOORD_1": 28
          },
          "indices": 29,
          "material": 4,
          "mode": 4
        }
      ]
    }
  ],
  "nodes": [
    {
      "children": [
        1
      ],
      "matrix": [
        1.0,
        0.0,
        0.0,
        0.0,
        0.0,
        2.220446049250313e-16,
        -1.0,
        0.0,
        0.0,
        1.0,
        2.220446049250313e-16,
        0.0,
        0.0,
        0.0,
        0.0,
        1.0
      ],
      "name": "Sketchfab_model"
    },
    {
      "children": [
        2
      ],
      "matrix": [
        1.0,
        0.0,
        0.0,
        0.0,
        0.0,
        0.0,
        1.0,
        0.0,
        0.0,
        -1.0,
        0.0,
        0.0,
        0.0,
        0.0,
        0.0,
        1.0
      ],
      "name": "3dc9a3b99d7c40b09a1d023792943a66.fbx"
    },
    {
      "children": [
        3,
        5,
        7,
        9,
        11
      ],
      "name": "RootNode"
    },
    {
      "children": [
        4
      ],
      "matrix": [
        1.0,
        0.0,
        0.0,
        0.0,
        0.0,
        0.9999999999999867,
        1.6292067073209113e-07,
        0.0,
        0.0,
        -1.6292067073209113e-07,
        0.9999999999999867,
        0.0,
        0.0,
        0.0,
        0.0,
        1.0
      ],
      "name": "3"
    },
    {
      "mesh": 0,
      "name": "3_3_0"
    },
    {
      "children": [
        6
      ],
      "matrix": [
        1.0,
        0.0,
        0.0,
        0.0,
        0.0,
        0.9999999999999867,
        1.6292067073209113e-07,
        0.0,
        0.0,
        -1.6292067073209113e-07,
        0.9999999999999867,
        0.0,
        0.0,
        0.0,
        0.0,
        1.0
      ],
      "name": "5"
    },
    {
      "mesh": 1,
      "name": "5_5_0"
    },
    {
      "children": [
        8
      ],
      "matrix": [
        1.0,
        0.0,
        0.0,
        0.0,
        0.0,
        0.9999999999999867,
        1.6292067073209113e-07,
        0.0,
        0.0,
        -1.6292067073209113e-07,
        0.9999999999999867,
        0.0,
        0.0,
        0.0,
        0.0,
        1.0
      ],
      "name": "2"
    },
    {
      "mesh": 2,
      "name": "2_2_0"
    },
    {
      "children": [
        10
      ],
      "matrix": [
        1.0,
        0.0,
        0.0,
        0.0,
        0.0,
        0.9999999999999867,
        1.6292067073209113e-07,
        0.0,
        0.0,
        -1.6292067073209113e-07,
        0.9999999999999867,
        0.0,
        0.0,
        0.0,
        0.0,
        1.0
      ],
      "name": "1"
    },
    {
      "mesh": 3,
      "name": "1_1_0"
    },
    {
      "children": [
        12
      ],
      "matrix": [
        1.0,
        0.0,
        0.0,
        0.0,
        0.0,
        0.9999999999999867,
        1.6292067073209113e-07,
        0.0,
        0.0,
        -1.6292067073209113e-07,
        0.9999999999999867,
        0.0,
        0.0,
        0.0,
        0.0,
        1.0
      ],
      "name": "4"
    },
    {
      "mesh": 4,
      "name": "4_4.001_0"
    }
  ],
  "samplers": [
    {
      "magFilter": 9729,
      "minFilter": 9987,
      "wrapS": 10497,
      "wrapT": 10497
    }
  ],
  "scene": 0,
  "scenes": [
    {
      "name": "Sketchfab_Scene",
      "nodes": [
        0
      ]
    }
  ],
  "textures": [
    {
      "sampler": 0,
      "source": 0
    },
    {
      "sampler": 0,
      "source": 1
    },
    {
      "sampler": 0,
      "source": 2
    },
    {
      "sampler": 0,
      "source": 3
    },
    {
      "sampler": 0,
      "source": 4
    },
    {
      "sampler": 0,
      "source": 5
    },
    {
      "sampler": 0,
      "source": 6
    },
    {
      "sampler": 0,
      "source": 7
    },
    {
      "sampler": 0,
      "source": 8
    },
    {
      "sampler": 0,
      "source": 9
    }
  ]
}
